Patient4_TMGait_0pt4_03_left_17_EMG.mot
version=1
nRows=30
nColumns=33
inDegrees=no
endheader
time	1LAddLong	2LGlutMax	3LGlutMed	4LIliopsoas	5LSemiMemb	6LBicFemLong	7LRecFem	8LVastMed	9LVastLat	10LGasMed	11LTibAnt	12lTibPost	13LPeroneusLong	14LSol	15LExtDigLong	16LFlexDigLong	17RAddLong	18RGlutMax	19RGlutMed	20RIliopsoas	21RSemiMemb	22RBicFemLong	23RRecFem	24RVastMed	25RVastLat	26RGasMed	27RTibAnt	28RTibPost	29RPeroneusLong	30RSol	31RExtDigLong	32RFlexDigLong
23.523	0.003052	0.11124	-0.011444	0.012817	-0.016174	-0.008545	-0.010071	-0.001068	0.13153	-0.040741	0.015717	0.003052	0.031433	-0.019684	-0.31189	0.005646	0.0177	0.20813	-0.10407	-0.020752	0.002441	-0.015411	-0.032349	0.03006	-0.043182	-0.008698	-0.018005	-0.011597	1.4697	-0.029602	-0.003967	-0.015259
23.524	0.005493	0.092621	-0.011597	0.012207	-0.006866	-0.016785	-0.009613	0.000763	0.1326	-0.028687	0.029297	-0.003815	0.023193	-0.071564	-0.1442	-0.001984	0.031738	0.20401	-0.064697	-0.06485	0.001221	0.005646	0.062103	-0.002747	-0.065155	-0.022888	0.062714	-0.015411	0.94605	0.066986	0.000458	-0.007935
23.525	0.004272	0.097351	-0.044403	0.003662	-0.010223	-0.006866	-0.001984	-0.00473	0.1445	-0.027313	-0.098572	0.003815	0.024872	-0.12695	-0.13138	-0.001373	0.019073	0.23834	0.3981	-0.14633	0.015259	0.034027	0.11032	0.011139	-0.046692	-0.022583	0.15503	-0.019226	-0.037537	0.030518	-0.002289	-0.009766
23.526	0.007935	0.090942	-0.031738	0.008545	-0.032501	-0.007629	-0.001373	0.006256	0.13901	-0.031128	-0.16312	0.00473	0.039368	-0.15137	0.11734	0.007019	0.02121	0.20584	-0.20966	-0.035248	0.009918	0.045471	0.17639	0.056305	-0.052948	-0.030212	0.027771	-0.019073	-1.2355	0.018616	-0.000153	-0.004578
23.527	0.005493	0.11993	-0.038147	-0.005341	-0.03418	-0.0177	0.007782	-0.000458	0.13397	-0.014648	0.012054	-0.005341	0.039825	-0.13596	0.055695	0.004883	0.031128	0.25497	0.26718	0.016632	0.01297	0.032349	0.11627	0.068817	-0.057068	-0.001526	-0.05249	-0.029144	-1.6267	0.057831	-0.001678	0.000916
23.528	0.01236	0.11459	-0.003052	-0.001068	-0.057373	-0.027008	0.004425	0.006866	0.12238	-0.022278	0.072632	0.016479	0.025787	-0.068359	0.067902	0.011597	0.020142	0.2095	0.12329	0.13672	0.020599	0.045776	0.10407	0.015106	-0.010223	-0.016937	-0.084229	-0.017548	0.61951	-0.12405	0.001068	-0.007477
23.529	0.023499	0.11093	-0.001984	0.002747	-0.019379	-0.059509	-0.004272	0.001526	0.13031	-0.00824	0.069122	0	0.016785	-0.074158	-0.066986	0.005646	0.019531	0.17517	-0.11002	0.1297	0.009766	0.031586	0.23193	-0.090179	-0.00061	-0.040894	-0.010834	0.010071	1.2228	-0.17777	-0.006561	-0.006714
23.53	0.077209	0.11398	-0.027771	-0.009766	0.051727	-0.088196	-0.003662	-0.002136	0.13229	-0.004883	0.11246	0.009918	-0.021057	-0.082703	-0.20462	0.002899	0.01236	0.18249	-0.17685	0.042267	0.010071	0.031586	0.34256	-0.18906	-0.067291	-0.036316	0.0354	-0.001068	1.0411	-0.15579	-0.001526	-0.012817
23.531	-0.041199	0.13504	-0.045929	0.010986	0.022278	-0.044861	-0.007477	-0.001068	0.12024	0.003052	0.097198	0.000305	-0.035095	-0.099945	-0.1471	0.003815	0.010223	0.18646	-0.093536	0.050354	0.011292	0.019379	0.22781	-0.14694	-0.064087	-0.017395	-0.16312	-0.016022	0.95169	-0.035858	-0.002136	-0.007935
23.532	0.028229	0.14145	-0.040283	0.018158	-0.007019	-0.020294	-0.005951	0.001068	0.10727	0.000305	-0.009155	0.001221	-0.046234	-0.10849	-0.049744	0.003662	0.014954	0.22293	0.022888	-0.010681	0.006409	0.005341	-0.092621	-0.17685	-0.025635	0.021973	-0.12344	-0.039825	0.34485	0.03891	-0.004883	-0.002899
23.533	0.014038	0.15335	-0.072174	0.023956	-0.027771	-0.022583	0.006409	0.005951	0.11017	-0.016785	-0.1358	0.003815	0.011139	-0.08728	-0.007782	-0.004578	0.000153	0.22369	0.31189	-0.009613	0.007935	0.010376	-0.15915	-0.20218	-0.1178	0.052338	-0.086975	-0.052032	-0.19104	0.005798	-0.001984	-0.009613
23.534	0.00824	0.15137	-0.02594	0.003662	-0.035553	-0.042267	0.012512	0.00351	0.11459	-0.030518	-0.15717	0.00351	0.082245	-0.051575	0.021515	0.005951	0.007477	0.30075	0.74234	-0.033417	0.006866	-0.013123	-0.22995	-0.19714	-0.10361	0.046234	-0.013275	0.032043	-0.40268	-0.14816	0.000916	-0.009613
23.535	0.010223	0.14679	-0.037079	0.00473	0.027313	-0.072479	0.020294	0.004425	0.11948	-0.015717	-0.022125	0.002747	0.042267	-0.060883	0.044098	0.004883	-0.002136	0.28427	0.16602	-0.043793	0.001984	0.001221	-0.72189	0.027771	0.038452	0.023651	0.001831	0.058899	-0.41351	-0.17883	0.00351	-0.010681
23.536	0.010529	0.13947	-0.032196	0	0.050049	-0.067596	0.007782	0.007019	0.11475	-0.006256	0.050964	0.007782	-0.02243	-0.070801	0.075378	0.001984	0.012207	0.20584	-0.1683	-0.00946	0.009918	-0.023041	-0.62561	0.17181	0.14923	0.003815	0.070343	-0.002747	-0.63751	-0.11581	-0.001373	-0.014954
23.537	0.007172	0.13229	-0.036774	-0.006714	0.003662	-0.022583	0.028076	0.00885	0.1033	-0.003815	0.06485	0.006561	-0.031433	-0.065765	0.080261	-0.001068	0.026398	0.23865	-0.43671	-0.022125	-0.001526	-0.032043	-0.14557	0.17593	0.099182	-0.001221	0.096588	0.00061	-0.19058	-0.006104	0	-0.022583
23.538	0.014648	0.13306	-0.056	0.00412	-0.02533	-0.006866	0.010071	0.006561	0.10513	-0.008698	0.058289	0.001373	-0.02243	-0.064697	0.089874	0.003204	0.03067	0.19638	-0.62668	-0.008545	0.005188	-0.041962	-0.10468	0.18402	0.077667	-0.005798	0.037994	0.025482	0.14053	0.072174	0.001373	-0.0177
23.539	0.004272	0.11261	-0.068817	0.012817	-0.009766	-0.025482	0.02182	0.004425	0.10788	-0.016937	0.078583	0.007782	-0.015106	-0.046692	0.076447	0.002747	0.035553	0.096893	-0.15915	-0.057526	-0.002747	-0.024414	-0.048676	0.16785	0.097351	-0.001831	0.013885	0.001526	0.11169	0.050354	0.000458	-0.00885
23.54	0.008087	0.10284	-0.090637	0.026093	0.019226	-0.035858	0.019379	0.004272	0.10956	-0.02655	0.10757	0.000763	0.016022	-0.041809	0.030365	0.006104	0.026093	0.033417	-0.96024	0.041504	0.000305	-0.033722	-0.063324	0.06958	0.0737	0.003662	-0.012512	-0.001068	-0.24262	0.19714	-0.001526	-0.014038
23.541	0.016785	0.10956	-0.05249	0.022278	0.002289	-0.037689	0.011444	0.003204	0.10773	-0.039063	0.098724	-0.001221	0.02594	-0.045471	0.005646	0.004883	0.018005	-0.087128	-0.71396	0.045776	0.004883	0.009003	-0.005493	0.04837	0.064697	-0.002441	0.039215	-0.003052	-0.55679	0.16617	-0.000763	-0.010834
23.542	0.010986	0.082855	-0.002136	-0.016632	-0.006256	-0.038452	0.019379	-0.001678	0.1152	-0.041656	-0.076141	-0.000763	-0.003815	-0.062714	0.090485	0.006866	0.021667	-0.033722	-0.012054	-0.096436	0.010223	-0.002441	-0.000153	-0.023041	0.007324	-0.005035	0.06897	-0.006714	-0.084686	0.10712	0.000305	-0.006409
23.543	0.011597	0.064545	-0.006561	-0.01236	-0.024109	-0.041351	0.014496	0.003967	0.09552	-0.044098	-0.09491	0.002747	-0.013428	-0.077209	0.15839	-0.006866	0.016632	-0.11154	-0.31113	-0.15991	0.002441	0.006714	-0.019989	0.032501	0.012207	-0.000458	-0.059814	-0.012512	0.35645	-0.088043	-0.001678	-0.002594
23.544	0.000305	0.065918	-0.024872	-0.013275	-0.003815	-0.047302	0.02594	0.005493	0.086212	-0.030365	-0.012665	-0.000153	0.003815	-0.06546	0.098572	-0.005035	0.019379	-0.008698	-0.044403	-0.15961	0.01297	-0.002441	-0.005798	-0.014496	0.004883	-0.00061	-0.053558	-0.009308	0.13641	0.010376	-0.00061	-0.000153
23.545	0.00412	0.058746	-0.03952	0.005341	-0.002289	-0.041199	0.029297	0.005188	0.074463	0.004272	0.023804	0.002747	-0.005035	-0.049438	0.007477	0.007629	0.013123	0.006561	-0.52597	-0.016022	0.011902	0.004425	-0.002747	-0.000153	-0.008087	-0.000458	-0.036011	-0.011444	-0.009155	-0.008698	0.004272	-0.001526
23.546	0.009918	0.062408	-0.033875	0.002899	-0.014038	-0.041656	0.032959	0.00473	0.067596	-0.050201	-0.007019	0.005493	0.013733	-0.079651	-0.015717	0.002899	0.009308	-0.017242	-0.1947	0.15472	0.008545	0.012817	0.020752	0.01236	0.012054	-0.007019	0.09903	0	0.12116	0.020142	-0.001526	-0.006256
23.547	0.011902	0.015869	-0.06012	0.000305	-0.026093	-0.014038	0.024567	0.000763	0.063324	-0.04776	0.002747	0.004425	-0.00885	-0.003052	-0.005646	-0.00824	0.008087	-0.1648	0.037994	0.23041	0.01297	0.012207	0.044708	0.005493	-0.010834	-0.009613	0.005646	0.00061	0.44418	0.0737	-0.00061	-0.003815
23.548	0.016327	0.033722	-0.010376	-0.008087	-0.092163	0.017242	0.026093	0.001984	0.059052	-0.010834	0.077972	-0.000763	-0.059204	0.022736	-0.11169	-0.016632	0.006104	-0.1445	0.060272	0.14557	0.009003	0.002136	0.072479	-0.009918	0.012665	0.000458	-0.043793	0.00061	-0.010376	-0.025177	0	-0.000763
23.549	0.015411	-0.016327	-0.052032	0.000305	-0.048218	0.030518	0.009613	0.000916	0.061035	0.009613	0.02533	0.003357	-0.058289	-0.071716	-0.20767	-0.016327	0.005646	-0.097351	-0.22934	0.03479	0.010223	0.014191	0.023956	-0.005035	-0.027161	-0.006256	0.023499	-0.002899	-0.073853	0.049591	-0.001221	-0.01236
23.55	0.011444	-0.008698	-0.079193	-0.003052	-0.03479	0.020905	0.033875	0.001984	0.058746	-0.003052	-0.050812	-0.012207	-0.010223	-0.080109	-0.09903	-0.015717	-0.002136	-0.07431	-0.19226	-0.033722	0.010834	0.018921	-0.13214	0	-0.013123	-0.011292	0.088043	-0.006104	-0.76508	0.054016	-0.001221	-0.013885
23.551	0.000153	-0.005035	-0.090027	-0.005798	-0.021515	-0.004425	0.034332	0.002441	0.058746	0.004425	-0.14999	0.000763	-0.03067	-0.10437	0.059814	-0.019073	0.00946	-0.11292	-0.064392	-0.014954	0.018158	0.029907	-0.13489	-0.022278	0.007324	-0.010223	0.067902	-0.009766	-0.79758	0.020599	0.001373	-0.012512
23.552	0.005341	-0.002594	-0.076752	0.001526	-0.006409	-0.01236	0.02594	-0.000458	0.046692	-0.011444	-0.17105	0.004578	-0.055847	-0.081329	0.17059	-0.019073	0.003967	-0.092773	-0.20157	0.023041	0.008698	0.013733	-0.064087	-0.026398	0.036621	-0.00412	0.054016	-0.003815	-0.54169	0.008392	-0.001831	-0.012054
